<?xml version="1.0" encoding="utf-8"?>
<!-- Generator: Adobe Illustrator 16.0.0, SVG Export Plug-In . SVG Version: 6.00 Build 0)  -->
<!DOCTYPE svg PUBLIC "-//W3C//DTD SVG 1.1//EN" "http://www.w3.org/Graphics/SVG/1.1/DTD/svg11.dtd">
<svg version="1.1" id="Layer_1" xmlns="http://www.w3.org/2000/svg" xmlns:xlink="http://www.w3.org/1999/xlink" x="0px" y="0px"
	 width="512px" height="512px" viewBox="0 0 512 512" enable-background="new 0 0 512 512" xml:space="preserve">
<path id="facebook-circle-icon" fill="#0D7D73" d="M256.417,50c-113.771,0-206,92.229-206,206c0,113.771,92.229,206,206,206
	c113.771,0,206-92.229,206-206C462.417,142.229,370.188,50,256.417,50z M317.385,171.192c0,0-20.604,0-28.789,0
	c-10.162,0-12.279,4.163-12.279,14.678c0,8.75,0,25.404,0,25.404h41.068l-3.951,44.596h-37.117v133.228h-53.2V256.435H195.45v-45.16
	h27.666c0,0,0-6.493,0-35.565c0-33.379,17.849-50.807,57.437-50.807c6.484,0,36.833,0,36.833,0L317.385,171.192L317.385,171.192z"/>
</svg>
