<?xml version="1.0" encoding="utf-8"?>
<!-- Generator: Adobe Illustrator 16.0.0, SVG Export Plug-In . SVG Version: 6.00 Build 0)  -->
<!DOCTYPE svg PUBLIC "-//W3C//DTD SVG 1.1//EN" "http://www.w3.org/Graphics/SVG/1.1/DTD/svg11.dtd">
<svg version="1.1" id="Layer_1" xmlns="http://www.w3.org/2000/svg" xmlns:xlink="http://www.w3.org/1999/xlink" x="0px" y="0px"
	 width="276px" height="332px" viewBox="0 0 276 332" enable-background="new 0 0 276 332" xml:space="preserve">
<g>
	<path fill="#B7242E" d="M142.795,44.442c12.121-10.816,28.111-17.389,45.636-17.389C226.3,27.054,257,57.753,257,95.625
		c0,16.783-5.396,32.856-16.042,44.077l-98.196,95.192c-1.514,1.346-3.508,2.162-5.693,2.162c-2.366,0-4.51-0.958-6.061-2.51
		l-97.961-94.84C22.109,128.77,17,112.411,17,95.625c0-37.872,30.702-68.571,68.573-68.571c17.381,0,33.253,6.468,45.342,17.124
		c0,0,2.277,2.391,6.153,2.391C140.412,46.568,142.795,44.442,142.795,44.442z M86.125,38.905
		c-31.428,0-56.906,25.479-56.906,56.904c0,31.427,25.479,56.905,56.906,56.905c31.426,0,56.905-25.479,56.905-56.905
		C143.029,64.384,117.551,38.905,86.125,38.905z"/>
	<g>
		<path fill="#2CB4A7" d="M44.739,270.475h-6v23.463h-2.32v-23.463h-4.735v-1.359l4.735-0.867v-1.969
			c0-3.126,0.574-5.419,1.723-6.88s3.027-2.191,5.637-2.191c1.407,0,2.813,0.211,4.219,0.633l-0.539,2.016
			c-1.25-0.391-2.493-0.586-3.727-0.586c-1.813,0-3.098,0.535-3.855,1.605c-0.758,1.07-1.137,2.81-1.137,5.215v2.368h6V270.475z
			 M49.333,261.38c0-1.5,0.492-2.25,1.477-2.25c0.484,0,0.863,0.195,1.137,0.586c0.273,0.391,0.41,0.945,0.41,1.664
			c0,0.703-0.137,1.258-0.41,1.664c-0.274,0.406-0.653,0.609-1.137,0.609C49.826,263.653,49.333,262.896,49.333,261.38z
			 M51.982,293.938h-2.321v-25.479h2.321V293.938z"/>
		<path fill="#2CB4A7" d="M62.835,293.938h-2.32v-36.472h2.32V293.938z"/>
		<path fill="#2CB4A7" d="M103.198,293.938v-16.713c0-2.484-0.485-4.297-1.454-5.438s-2.453-1.711-4.454-1.711
			c-2.61,0-4.54,0.719-5.79,2.156s-1.875,3.695-1.875,6.774v14.931h-2.367v-17.416c0-4.297-1.969-6.445-5.907-6.445
			c-2.672,0-4.618,0.777-5.836,2.332c-1.219,1.555-1.829,4.043-1.829,7.466v14.063h-2.32v-25.479h1.922l0.492,3.492h0.141
			c0.703-1.266,1.703-2.246,3-2.941c1.297-0.695,2.727-1.043,4.29-1.043c4.016,0,6.594,1.508,7.735,4.523h0.094
			c0.828-1.453,1.941-2.57,3.34-3.352c1.398-0.781,2.988-1.172,4.77-1.172c2.781,0,4.868,0.742,6.259,2.227
			c1.391,1.484,2.086,3.844,2.086,7.078v16.666H103.198z"/>
		<path fill="#B7242E" d="M117.496,293.938h-3.891v-36.472h3.891V293.938z"/>
		<path fill="#B7242E" d="M147.92,281.069c0,4.188-1.055,7.458-3.164,9.81s-5.023,3.527-8.743,3.527
			c-2.297,0-4.336-0.539-6.118-1.617c-1.781-1.078-3.156-2.625-4.125-4.642c-0.969-2.016-1.454-4.375-1.454-7.078
			c0-4.188,1.047-7.45,3.141-9.786c2.094-2.336,5-3.504,8.72-3.504c3.594,0,6.45,1.195,8.567,3.586S147.92,276.99,147.92,281.069z
			 M128.348,281.069c0,3.281,0.656,5.781,1.969,7.501c1.312,1.719,3.242,2.578,5.79,2.578c2.547,0,4.481-0.855,5.801-2.566
			c1.32-1.712,1.98-4.216,1.98-7.513c0-3.266-0.66-5.746-1.98-7.442c-1.32-1.695-3.27-2.543-5.848-2.543
			c-2.547,0-4.469,0.836-5.766,2.508C128.997,275.265,128.348,277.757,128.348,281.069z"/>
		<path fill="#B7242E" d="M160.367,293.938l-9.751-25.689h4.172l5.532,15.235c1.25,3.562,1.984,5.876,2.203,6.938h0.188
			c0.172-0.828,0.715-2.544,1.629-5.146s2.966-8.277,6.153-17.028h4.172l-9.751,25.689H160.367z"/>
		<path fill="#B7242E" d="M189.643,294.406c-3.797,0-6.794-1.156-8.988-3.469c-2.196-2.312-3.294-5.524-3.294-9.634
			c0-4.141,1.02-7.431,3.06-9.868c2.039-2.438,4.777-3.656,8.215-3.656c3.219,0,5.767,1.059,7.642,3.176s2.812,4.91,2.812,8.38
			v2.461h-17.696c0.077,3.016,0.84,5.306,2.285,6.868s3.48,2.344,6.105,2.344c2.767,0,5.501-0.578,8.204-1.734v3.469
			c-1.375,0.594-2.676,1.02-3.902,1.277C192.857,294.277,191.378,294.406,189.643,294.406z M188.588,271.037
			c-2.062,0-3.707,0.672-4.934,2.016c-1.228,1.344-1.949,3.204-2.168,5.579h13.431c0-2.453-0.547-4.333-1.641-5.638
			C192.182,271.689,190.619,271.037,188.588,271.037z"/>
		<path fill="#B7242E" d="M217.441,267.779c1.141,0,2.165,0.094,3.071,0.281l-0.539,3.609c-1.063-0.234-2.001-0.352-2.813-0.352
			c-2.078,0-3.855,0.844-5.332,2.531s-2.215,3.79-2.215,6.306v13.782h-3.892v-25.689h3.212l0.445,4.758h0.188
			c0.953-1.672,2.102-2.961,3.445-3.867S215.832,267.779,217.441,267.779z"/>
		<path fill="#B7242E" d="M241.89,286.929c0,2.392-0.891,4.235-2.672,5.532c-1.782,1.297-4.282,1.945-7.501,1.945
			c-3.407,0-6.063-0.539-7.97-1.617v-3.609c1.234,0.625,2.559,1.117,3.974,1.477c1.414,0.359,2.777,0.539,4.09,0.539
			c2.031,0,3.594-0.324,4.688-0.973s1.642-1.637,1.642-2.966c0-0.999-0.435-1.855-1.302-2.566s-2.559-1.551-5.074-2.52
			c-2.391-0.891-4.09-1.668-5.099-2.332c-1.008-0.664-1.758-1.418-2.25-2.262c-0.492-0.845-0.738-1.853-0.738-3.024
			c0-2.094,0.852-3.746,2.555-4.957s4.04-1.816,7.009-1.816c2.766,0,5.469,0.562,8.11,1.688l-1.383,3.164
			c-2.579-1.062-4.915-1.594-7.009-1.594c-1.844,0-3.234,0.289-4.172,0.867s-1.406,1.375-1.406,2.391
			c0,0.688,0.176,1.274,0.527,1.758c0.352,0.485,0.917,0.946,1.699,1.384c0.781,0.438,2.281,1.07,4.5,1.898
			c3.047,1.109,5.106,2.227,6.177,3.352S241.89,285.226,241.89,286.929z"/>
	</g>
	<g>
		<circle fill="#B7242E" cx="103.256" cy="69.674" r="11.328"/>
		<circle fill="#B7242E" cx="66.562" cy="71.441" r="11.327"/>
		<path fill="#B7242E" d="M52.888,96.294c5.851-2.217,12.39,0.726,14.606,6.579c2.216,5.849-0.73,12.387-6.576,14.604
			c-5.853,2.217-12.391-0.728-14.609-6.578C44.092,105.05,47.039,98.51,52.888,96.294z"/>
		<circle fill="#B7242E" cx="87.625" cy="127.023" r="11.328"/>
		<path fill="#B7242E" d="M113.297,114.955c-6.037-1.644-9.595-7.872-7.951-13.906c1.646-6.036,7.872-9.595,13.907-7.952
			c6.037,1.648,9.598,7.874,7.951,13.911C125.559,113.041,119.331,116.601,113.297,114.955z"/>
		<circle fill="#B7242E" cx="86.124" cy="95.81" r="5.272"/>
	</g>
	<defs>
		<filter id="Adobe_OpacityMaskFilter" filterUnits="userSpaceOnUse" x="48.715" y="118.216" width="135.659" height="52.799">
			<feColorMatrix  type="matrix" values="1 0 0 0 0  0 1 0 0 0  0 0 1 0 0  0 0 0 1 0"/>
		</filter>
	</defs>
	<mask maskUnits="userSpaceOnUse" x="48.715" y="118.216" width="135.659" height="52.799" id="SVGID_1_">
		<g filter="url(#Adobe_OpacityMaskFilter)">
			<path fill="#FFFFFF" d="M142.795,44.442c12.121-10.816,28.111-17.389,45.636-17.389C226.3,27.054,257,57.753,257,95.625
				c0,16.783-5.396,32.856-16.042,44.077l-98.196,95.192c-1.514,1.346-3.508,2.162-5.693,2.162c-2.366,0-4.51-0.958-6.061-2.51
				l-97.961-94.84C22.109,128.77,17,112.411,17,95.625c0-37.872,30.702-68.571,68.573-68.571c17.381,0,33.253,6.468,45.342,17.124
				c0,0,2.277,2.391,6.153,2.391C140.412,46.568,142.795,44.442,142.795,44.442z M86.125,38.905
				c-31.428,0-56.906,25.479-56.906,56.904c0,31.427,25.479,56.905,56.906,56.905c31.426,0,56.905-25.479,56.905-56.905
				C143.029,64.384,117.551,38.905,86.125,38.905z"/>
		</g>
	</mask>
	<path mask="url(#SVGID_1_)" fill="#5F212D" d="M48.715,118.216c0,0,13.464,16.527,19.516,22.45
		c9.075,8.883,18.428,11.757,23.695,11.757s14.719,10.19,35.347,16.557c22.452,6.931,41.301-5.275,48.786-15.111
		c7.483-9.835,8.315-11.329,8.315-11.329l-9.147-1.767c0,0-7.526,16.173-23.007,24.881c-17.741,9.979-33.289-3.913-45.46-13.554
		c-10.533-8.344-21.771,2.352-33.791-6.167C63.458,139.191,56.871,144.159,48.715,118.216z"/>
	<defs>
		<filter id="Adobe_OpacityMaskFilter_1_" filterUnits="userSpaceOnUse" x="47.688" y="61.521" width="72.817" height="68.579">
			<feColorMatrix  type="matrix" values="1 0 0 0 0  0 1 0 0 0  0 0 1 0 0  0 0 0 1 0"/>
		</filter>
	</defs>
	<mask maskUnits="userSpaceOnUse" x="47.688" y="61.521" width="72.817" height="68.579" id="SVGID_2_">
		<g filter="url(#Adobe_OpacityMaskFilter_1_)">
			<g>
				<circle fill="#FFFFFF" cx="103.346" cy="69.674" r="11.328"/>
				<circle fill="#FFFFFF" cx="66.65" cy="71.441" r="11.327"/>
				<path fill="#FFFFFF" d="M52.976,96.294c5.851-2.217,12.389,0.726,14.605,6.579c2.217,5.849-0.729,12.387-6.575,14.604
					c-5.853,2.217-12.393-0.728-14.61-6.578C44.179,105.05,47.125,98.51,52.976,96.294z"/>
				<circle fill="#FFFFFF" cx="87.715" cy="127.023" r="11.328"/>
				<path fill="#FFFFFF" d="M113.387,114.955c-6.036-1.644-9.595-7.872-7.951-13.906c1.646-6.036,7.872-9.595,13.907-7.952
					c6.038,1.648,9.599,7.874,7.952,13.911C125.649,113.041,119.422,116.601,113.387,114.955z"/>
				<circle fill="#FFFFFF" cx="86.213" cy="95.81" r="5.273"/>
			</g>
		</g>
	</mask>
	<g mask="url(#SVGID_2_)">
		<circle fill="#5F212D" cx="86.213" cy="95.81" r="34.288"/>
		<path fill="#5F212D" d="M47.962,124.963c0.905,5.101,3.054,8.946,2.489-7.223c-0.566-16.17,5.54-34.6,5.54-34.6
			C51.016,90.49,46.515,116.799,47.962,124.963z"/>
	</g>
</g>
</svg>
