<?xml version="1.0" encoding="utf-8"?>
<!-- Generator: Adobe Illustrator 16.0.0, SVG Export Plug-In . SVG Version: 6.00 Build 0)  -->
<!DOCTYPE svg PUBLIC "-//W3C//DTD SVG 1.1//EN" "http://www.w3.org/Graphics/SVG/1.1/DTD/svg11.dtd">
<svg version="1.1" id="Layer_1" xmlns="http://www.w3.org/2000/svg" xmlns:xlink="http://www.w3.org/1999/xlink" x="0px" y="0px"
	 width="512px" height="512px" viewBox="0 0 512 512" enable-background="new 0 0 512 512" xml:space="preserve">
<path id="google-plus-circle-icon" fill="#0D7F10" d="M273.369,331.659c0,20.247-16.443,36.065-50.481,36.065
	c-26.625,0-45.852-16.854-45.852-37.102c0-19.84,22.562-36.957,49.186-36.664C255.762,293.961,273.369,312.357,273.369,331.659z
	 M462.417,257c0,113.771-92.229,206-206,206c-113.771,0-206-92.229-206-206c0-113.771,92.229-206,206-206
	C370.188,51,462.417,143.229,462.417,257z M296.303,329.305c0-18.691-6.979-30.902-28.096-46.725
	c-21.417-15.619-26.65-24.443-6.208-40.248c11.519-8.906,19.591-20.778,19.591-35.436c0-15.969-6.529-30.457-18.809-37.492h17.404
	L295,153.853c0,0-55.854,0-66.303,0c-41.39,0-61.685,24.809-61.685,52.098c0,27.889,19.132,49.854,56.492,49.854
	c-5.792,11.693-3.466,22.494,6.011,30.216c-63.807,0-77.461,27.998-77.461,49.565c0,27.945,32.123,44.56,70.643,44.56
	C275.367,380.146,296.303,352.234,296.303,329.305z M382.776,187.5h-30.589v-30.588h-15.295V187.5h-30.589v15.294h30.589v30.588
	h15.295v-30.588h30.589V187.5z M254.949,207.894c-3.083-23.466-18.371-42.719-36.234-43.256
	c-17.869-0.532-29.854,17.427-26.767,40.899c3.085,23.467,20.067,39.859,37.939,40.398
	C247.75,246.467,258.031,231.363,254.949,207.894z"/>
</svg>
