<?xml version="1.0" encoding="utf-8"?>
<!-- Generator: Adobe Illustrator 16.0.0, SVG Export Plug-In . SVG Version: 6.00 Build 0)  -->
<!DOCTYPE svg PUBLIC "-//W3C//DTD SVG 1.1//EN" "http://www.w3.org/Graphics/SVG/1.1/DTD/svg11.dtd">
<svg version="1.1" id="Layer_1" xmlns="http://www.w3.org/2000/svg" xmlns:xlink="http://www.w3.org/1999/xlink" x="0px" y="0px"
	 width="25px" height="15px" viewBox="0 0 25 15" enable-background="new 0 0 25 15" xml:space="preserve">
<path opacity="0.1" d="M12.5,0C8.358,0,5,3.358,5,7.5c0,4.142,3.358,7.5,7.5,7.5c4.142,0,7.5-3.358,7.5-7.5S16.642,0,12.5,0z
	 M14.758,2.562c0.825,0,1.493,0.668,1.493,1.493c0,0.825-0.668,1.493-1.493,1.493c-0.824,0-1.493-0.668-1.493-1.493
	C13.265,3.231,13.934,2.562,14.758,2.562z M9.922,2.795c0.824,0,1.493,0.668,1.493,1.493c0,0.825-0.669,1.493-1.493,1.493
	c-0.825,0-1.493-0.668-1.493-1.493C8.429,3.464,9.097,2.795,9.922,2.795z M8.12,7.564c0.771-0.292,1.633,0.095,1.925,0.867
	c0.292,0.771-0.096,1.632-0.867,1.924c-0.771,0.292-1.633-0.096-1.925-0.867C6.96,8.718,7.349,7.856,8.12,7.564z M12.698,10.121
	c0.824,0,1.493,0.668,1.493,1.493c0,0.825-0.669,1.493-1.493,1.493s-1.493-0.668-1.493-1.493
	C11.205,10.79,11.874,10.121,12.698,10.121z M16.081,10.023c-0.795-0.217-1.264-1.038-1.048-1.833
	c0.217-0.795,1.038-1.264,1.833-1.048c0.796,0.217,1.265,1.038,1.048,1.833C17.697,9.771,16.876,10.24,16.081,10.023z M12.5,6.805
	c0.384,0,0.695,0.311,0.695,0.695S12.884,8.195,12.5,8.195S11.805,7.884,11.805,7.5S12.116,6.805,12.5,6.805z"/>
</svg>
