<?xml version="1.0" encoding="utf-8"?>
<!-- Generator: Adobe Illustrator 16.0.0, SVG Export Plug-In . SVG Version: 6.00 Build 0)  -->
<!DOCTYPE svg PUBLIC "-//W3C//DTD SVG 1.1//EN" "http://www.w3.org/Graphics/SVG/1.1/DTD/svg11.dtd">
<svg version="1.1" id="Layer_1" xmlns="http://www.w3.org/2000/svg" xmlns:xlink="http://www.w3.org/1999/xlink" x="0px" y="0px"
	 width="512px" height="512px" viewBox="0 0 512 512" enable-background="new 0 0 512 512" xml:space="preserve">
<path id="clipboard-5-icon" fill="#68212D" d="M373.529,81.667c-9.093,0-17.813-3.598-24.265-10.008L327.5,50h-143l-21.768,21.658
	c-6.447,6.411-15.171,10.009-24.263,10.009H79.5V462h353V81.667H373.529z M392,421.5H119v-300h62.333l24.917,25H307.5l25.25-25H392
	V421.5z M152.874,228.86l9.001-8.321c10.527,5.095,17.206,8.971,29.04,17.407c22.246-25.247,36.946-38.056,64.271-55.056
	l2.929,6.737c-22.533,19.664-39.036,41.567-62.801,84.184C180.657,256.55,170.875,245.546,152.874,228.86z M152.874,335.859
	l9.001-8.32c10.527,5.095,17.206,8.971,29.04,17.406c22.246-25.246,36.946-38.055,64.271-55.055l2.929,6.735
	c-22.533,19.664-39.036,41.565-62.801,84.185C180.657,363.55,170.875,352.546,152.874,335.859z M357.582,220.5h-69.999v-20h69.999
	V220.5z M357.582,238h-69.999v20h69.999V238z M357.582,337.167h-69.999v-20h69.999V337.167z M357.582,354.667h-69.999v20h69.999
	V354.667z"/>
</svg>
