<?xml version="1.0" encoding="utf-8"?>
<!-- Generator: Adobe Illustrator 16.0.0, SVG Export Plug-In . SVG Version: 6.00 Build 0)  -->
<!DOCTYPE svg PUBLIC "-//W3C//DTD SVG 1.1//EN" "http://www.w3.org/Graphics/SVG/1.1/DTD/svg11.dtd">
<svg version="1.1" id="Layer_1" xmlns="http://www.w3.org/2000/svg" xmlns:xlink="http://www.w3.org/1999/xlink" x="0px" y="0px"
	 width="512px" height="512px" viewBox="0 0 512 512" enable-background="new 0 0 512 512" xml:space="preserve">
<path fill="#FFFFFF" d="M265.578,114.479c18.18-16.222,42.162-26.081,68.446-26.081c56.799,0,102.846,46.046,102.846,102.849
	c0,25.172-8.094,49.281-24.062,66.11l-147.28,142.774c-2.271,2.019-5.262,3.243-8.541,3.243c-3.548,0-6.763-1.438-9.09-3.764
	L100.97,257.365c-16.405-16.406-24.067-40.941-24.067-66.118c0-56.803,46.049-102.849,102.852-102.849
	c26.07,0,49.875,9.701,68.006,25.685c0,0,3.415,3.585,9.229,3.585C262.005,117.668,265.578,114.479,265.578,114.479z"/>
</svg>
