<?xml version="1.0" encoding="utf-8"?>
<!-- Generator: Adobe Illustrator 16.0.0, SVG Export Plug-In . SVG Version: 6.00 Build 0)  -->
<!DOCTYPE svg PUBLIC "-//W3C//DTD SVG 1.1//EN" "http://www.w3.org/Graphics/SVG/1.1/DTD/svg11.dtd">
<svg version="1.1" id="Layer_1" xmlns="http://www.w3.org/2000/svg" xmlns:xlink="http://www.w3.org/1999/xlink" x="0px" y="0px"
	 width="512px" height="512px" viewBox="0 0 512 512" enable-background="new 0 0 512 512" xml:space="preserve">
<g>
	<path fill="#FFFFFF" d="M461.429,256c0,113.771-92.229,206-206,206c-113.776,0-206.006-92.229-206.006-206
		c0-113.771,92.229-206,206.006-206C369.199,50,461.429,142.229,461.429,256z M260.605,117.554v4.79c0,0-0.017,8.451-0.017,15.795
		c-7.358-8.138-18.546-20.585-18.546-20.585h-51.081l0.023,253.652l29.428,23.239l30.679-3.846c0,0,0.131-13.396,0.219-22.483
		c10.078,8.291,23.875,19.612,23.875,19.612l50.248-5.121V143.663l-27.269-26.054L260.605,117.554z"/>
	<path fill="#FFFFFF" d="M268.977,316.518l-1.703,0.2L237.92,124.373l-39.082-0.043l0.018,241.436c0,0,7.758-1.117,24.271-2.992
		l-1.702-183.517l1.693-0.16l27.924,180.801c0,0,9.545-1.123,41.998-4.334V124.349h-24.931L268.977,316.518z"/>
</g>
</svg>
