<?xml version="1.0" encoding="utf-8"?>
<!-- Generator: Adobe Illustrator 16.0.0, SVG Export Plug-In . SVG Version: 6.00 Build 0)  -->
<!DOCTYPE svg PUBLIC "-//W3C//DTD SVG 1.1//EN" "http://www.w3.org/Graphics/SVG/1.1/DTD/svg11.dtd">
<svg version="1.1" id="Layer_1" xmlns="http://www.w3.org/2000/svg" xmlns:xlink="http://www.w3.org/1999/xlink" x="0px" y="0px"
	 width="512px" height="512px" viewBox="0 0 512 512" enable-background="new 0 0 512 512" xml:space="preserve">
<g>
	<path id="debit-5-icon" fill="#FFFFFF" d="M299.981,324.302c-0.506,6.94-1.7,14.626-3.574,23.528
		c-7.293,34.628-26.442,82.716-13.407,135.947c-37.354,5.758-58.969,8.451-96.776,17.845
		c-4.409-65.602-36.574-79.824-29.123-136.774c8.75-66.801,13.625-104.345,19.316-149.455c1.791-14.199,11.813-21.104,21.596-21.104
		c10.189,0.002,20.12,7.499,20.209,22.055c0.34,53.346,1.747,106.474,5.24,119.392c2.358,8.713,17.55,10.299,17.55-8.265
		c0-2.082-0.025-3.446-0.025-3.446L299.981,324.302z M102.537,396.315c13.734-3.435,27.379-7.653,31.408-8.92
		c-0.215-7.52,0.198-15.882,1.442-25.392c0.75-5.729,1.472-11.246,2.172-16.592l-52.465,18.646
		c-9.98,3.619-13.268,10.409-10.602,18.493C77.7,392.271,88.465,399.832,102.537,396.315z M135.392,402.869l-32.731,10.605
		c-7.437,2.697-9.889,7.76-7.901,13.783c2.39,7.243,10.414,12.881,20.9,10.257c9.794-2.447,22.741-6.399,27.463-7.861
		C139.855,421.489,137.029,412.94,135.392,402.869z"/>
	<g>
		<path fill-rule="evenodd" clip-rule="evenodd" fill="#FFFFFF" d="M278.51,333.186c-26.506,0-47.925-6.942-47.925-6.942
			s-5.093-105.189-5.626-112.711c-2.822-39.82-50.562-31.278-54.444-7.272c-6.227,38.514-11.593,73.29-11.593,73.29
			s-40.163-36.856-40.163-106.284c0-88.309,74.396-163.687,168.13-159.192c80.692,3.869,152.294,71.531,151.566,161.222
			C437.73,264.889,362.894,334.863,278.51,333.186z M278.707,114.896c-32.586,0.004-59.185,26.14-59.028,58.634
			c0.17,35.479,29.269,59.109,58.979,59.117c30.039,0.007,58.799-24.028,58.981-59.066
			C337.806,141.144,311.258,114.891,278.707,114.896z M150.172,122.232c0.914-1.09,2.914-2.657,3.838-4.708
			c6.599-14.649,15.385-27.779,26.581-39.295c13.025-13.396,28.305-23.437,45.525-30.605c3.23-1.346,4.406-3.794,3.423-6.579
			c-0.901-2.555-3.871-3.714-6.987-2.696c-0.681,0.222-1.32,0.568-1.984,0.85c-24.781,10.513-45.311,26.51-60.751,48.545
			c-5.83,8.319-10.361,17.578-15.134,26.594C142.529,118.406,144.829,122.26,150.172,122.232z M238.378,65.467
			c0.1-5.055-3.485-7.118-7.717-5.368c-20.877,8.636-38.346,21.801-51.394,40.271c-5.243,7.421-9.258,15.73-13.583,23.769
			c-1.475,2.738-0.231,5.805,2.259,6.662c2.851,0.982,5.235,0.267,6.67-2.604c0.321-0.643,0.571-1.321,0.874-1.974
			c6.883-14.852,16.284-27.796,28.778-38.475c8.965-7.663,18.882-13.721,29.718-18.294C236.35,68.457,238.287,67.275,238.378,65.467
			z M247.036,87.264c0.158-5.191-3.616-7.388-7.734-5.662c-24.098,10.101-41.432,27.169-52.152,50.958
			c-0.551,1.224-1.058,3.142-0.489,4.046c0.971,1.543,2.904,3.617,4.267,3.501c1.847-0.156,4.095-1.793,5.197-3.445
			c4.718-7.074,8.518-14.822,13.698-21.515c8.631-11.152,20.15-18.795,33.066-24.408C244.736,89.937,246.116,88.059,247.036,87.264z
			"/>
		<path fill-rule="evenodd" clip-rule="evenodd" fill="#FFFFFF" d="M325.361,173.767c-0.005,25.683-20.994,46.793-46.613,46.881
			c-25.605,0.088-46.901-21.274-46.887-47.036c0.014-25.529,21.099-46.681,46.685-46.833
			C304.163,126.627,325.365,147.907,325.361,173.767z M278.871,157.01c-9.35-0.052-16.781,7.201-16.931,16.524
			c-0.146,9.243,7.295,16.825,16.554,16.867c9.328,0.042,16.784-7.204,16.972-16.494
			C295.651,164.797,288.054,157.062,278.871,157.01z"/>
	</g>
</g>
</svg>
