<?xml version="1.0" encoding="utf-8"?>
<!-- Generator: Adobe Illustrator 16.0.0, SVG Export Plug-In . SVG Version: 6.00 Build 0)  -->
<!DOCTYPE svg PUBLIC "-//W3C//DTD SVG 1.1//EN" "http://www.w3.org/Graphics/SVG/1.1/DTD/svg11.dtd">
<svg version="1.1" id="Layer_1" xmlns="http://www.w3.org/2000/svg" xmlns:xlink="http://www.w3.org/1999/xlink" x="0px" y="0px"
	 width="512px" height="512px" viewBox="0 0 512 512" enable-background="new 0 0 512 512" xml:space="preserve">
<path id="share-3-icon" fill="#68212D" d="M456.363,217.15l-53.11,98.847l-13.448-32.978C318.75,319.965,297.6,375.414,293.297,462
	h-71.764c5.17-110.042,34.896-192.984,141.101-245.604l-13.587-33.318L456.363,217.15z M220.646,224.377
	c13.368,10.646,25.29,22.229,35.857,34.786c10.566-12.562,22.508-24.14,35.879-34.79v-86.104l35.902,0.025L257.341,50
	l-72.603,88.193l35.907,0.025V224.377L220.646,224.377z M226.917,303.48c3.346-6.438,6.939-12.672,10.786-18.713
	c-20.825-26.61-49.125-49.453-87.312-68.374l13.588-33.318L55.637,216.125l54.137,99.872l13.448-32.978
	c41.252,21.447,65.68,49.139,79.759,85.532C208.838,344.46,216.756,323.023,226.917,303.48z"/>
</svg>
